/* XPM */
static char *b8a10b34dd904b859f951f59778705195dw69aiIuR4tpQ7y[] = {
/* columns rows colors chars-per-pixel */
"16 16 19 1 ",
"  c None",
". c #891215",
"X c #8C1116",
"o c #8F1217",
"O c #941317",
"+ c #951318",
"@ c #971318",
"# c #9B1419",
"$ c #A9151B",
"% c #AD161A",
"& c #B0171B",
"* c #B1171B",
"= c #B3171C",
"- c #B4171C",
"; c #D0191F",
": c #D11A21",
"> c #E71D24",
", c #EB1C23",
"< c #E81D24",
/* pixels */
" +              ",
" *              ",
"                ",
"                ",
"     ,,*=,,     ",
"    %,,><,,$    ",
"    O,,,,,,o    ",
"     ,,,,,,     ",
"     o,,,,.     ",
"      :,,;      ",
"       ,,       ",
"       #+       ",
"                ",
"                ",
"              - ",
"              o "
};
