/* XPM */
static char *fb87391173214d1af238ec222ea661c0ukWWucenL4haU5Pp[] = {
/* columns rows colors chars-per-pixel */
"64 64 81 1 ",
"  c None",
". c #831115",
"X c #831216",
"o c #841115",
"O c #851115",
"+ c #851315",
"@ c #8B1215",
"# c #891317",
"$ c #8F1317",
"% c #8D1218",
"& c #8D1419",
"* c #921317",
"= c #991417",
"- c #931318",
"; c #991419",
": c #9A1419",
"> c #9B151A",
", c #9D1518",
"< c #9E1419",
"1 c #9D151A",
"2 c #A11419",
"3 c #A2161B",
"4 c #A5151A",
"5 c #A7151B",
"6 c #A6171B",
"7 c #AD161A",
"8 c #A9161C",
"9 c #AA171C",
"0 c #AC161C",
"q c #AD171D",
"w c #B6171E",
"e c #B0181C",
"r c #B8181C",
"t c #B8181D",
"y c #B8181E",
"u c #B8191E",
"i c #C2191E",
"p c #C31A1F",
"a c #C61A20",
"s c #CB1A20",
"d c #CE1A21",
"f c #CF1B21",
"g c #D01A20",
"h c #D11A21",
"j c #D01B21",
"k c #D61A21",
"l c #D41B22",
"z c #D71B22",
"x c #DD1B22",
"c c #DE1B22",
"v c #DB1C21",
"b c #D91C23",
"n c #DA1C22",
"m c #DE1C21",
"M c #DD1D22",
"N c #DE1C23",
"B c #E11C22",
"V c #E11D22",
"C c #E31D23",
"Z c #E41C23",
"A c #E61C23",
"S c #E61D23",
"D c #E71D23",
"F c #E11C24",
"G c #E41C24",
"H c #E61C24",
"J c #E61D24",
"K c #E61D25",
"L c #EB1C23",
"P c #EB1D23",
"I c #EC1C23",
"U c #EC1D23",
"Y c #E81D24",
"T c #E91D24",
"R c #EA1D24",
"E c #EB1D24",
"W c #E91E25",
"Q c #EA1E25",
"! c #EC1D24",
"~ c #ED1D24",
"^ c #EC1E24",
/* pixels */
"                                                                ",
"    *8 21                                                       ",
"    LLdLL.                                                      ",
"    LLLLL@                                                      ",
"    YLLL~                                                       ",
"     LLL:                                                       ",
"     sLb                                                        ",
"      I                                                         ",
"                                                                ",
"                                                                ",
"                                                                ",
"                                                                ",
"                                                                ",
"                                                                ",
"                      4ZLLYq        eYILJ2                      ",
"                     ~LLLLLL~      ~IILLLLY                     ",
"                   =LLLLLLLLL~    ILLLLLLLLL&                   ",
"                   LLLLLLLLLLLj  bLLLLLLLLLLL                   ",
"                  ZLLLLLLLLLLLL  ILLLLLLLLLLLm                  ",
"                  LLLLLLLLLLLLL  LLLLLLLLLLI~Y                  ",
"                 tLLLLLLLLLLLLL14LLLLLLLLLLLLL9                 ",
"                 cLLLLLLLLLLLLLL~LLLLLLLLLLLLLd                 ",
"                 ~LLLLLLLLLLLLLLLLLLLLLLLLLLLLm                 ",
"                 GLLLLLLLLLLLLLLLLLLLLLLLLLLLLz                 ",
"                 pIILLLLLLLLLLLLLLLLLLLLLLLLLLt                 ",
"                 1LLLLLLLLLLLLLLLLLLLLLLLLLLLL$                 ",
"                  LLLLLLLLLLLLLLLLLLLLLLLLLLLL                  ",
"                  ZLLLLLLLLLLLLLLLLLLLLLLLLLLG                  ",
"                  -LLLLLLLLLLLLLLLLLLLLLLLLLYO                  ",
"                   LLLLLLLLLLLLLLLLLLLLLLLLLZ                   ",
"                   OLLLLLLLLLLLLLLLLLLLLLLII                    ",
"                    zLLLLLLLLLLLLLLLLLLLLLLj                    ",
"                     ~LILLLLLLLLLLLLLLLLIL~                     ",
"                     4LILLLLLLLLLLLLLLLLIY:                     ",
"                      mYLLLLLLLLLLLLLLLL~b                      ",
"                       LLLLLLLLLLLLLLLLL~                       ",
"                       7LLLLLLLLLLLLLLLL2                       ",
"                        BLLLLLLLLLLLLLIb                        ",
"                         LLLLLLLLLLLLLI                         ",
"                         wLLLLLLLLLLLL0                         ",
"                          JIIILLLLLLIB                          ",
"                           YLLLLLLLLY                           ",
"                           aLILLLLLLt                           ",
"                            YILLLIIZ                            ",
"                            .IIILLL                             ",
"                             dLILLa                             ",
"                              ~YL~                              ",
"                              1YL%                              ",
"                               mk                               ",
"                                                                ",
"                                                                ",
"                                                                ",
"                                                                ",
"                                                                ",
"                                                                ",
"                                                                ",
"                                                         ~      ",
"                                                        JLd     ",
"                                                       tLLL+    ",
"                                                       ILLLY    ",
"                                                      1ILLLL    ",
"                                                      @YLiLL    ",
"                                                       O  -     ",
"                                                                "
};
